<?xml version="1.0" encoding="utf-8"?>
<!-- Generator: Adobe Illustrator 15.0.0, SVG Export Plug-In . SVG Version: 6.00 Build 0)  -->
<!DOCTYPE svg PUBLIC "-//W3C//DTD SVG 1.1//EN" "http://www.w3.org/Graphics/SVG/1.1/DTD/svg11.dtd">
<svg version="1.1" id="Layer_1" xmlns="http://www.w3.org/2000/svg" xmlns:xlink="http://www.w3.org/1999/xlink" x="0px" y="0px"
	 width="499.793px" height="143.451px" viewBox="0 0 499.793 143.451" enable-background="new 0 0 499.793 143.451"
	 xml:space="preserve">
<g>
	<path fill="#F79F1D" d="M65.212,84.849l6.641-5.678c0.374,0.359,0.774,0.691,1.199,0.99l-4.382,7.446l5.094-6.983
		c0.453,0.268,0.928,0.5,1.421,0.697l-2.483,8.175l3.281-7.892c0.507,0.154,1.03,0.27,1.566,0.346l-0.477,8.48l1.319-8.395
		c0.205,0.012,0.41,0.02,0.618,0.02l0,0v-10.33H68.679c0,0.135,0.005,0.269,0.01,0.402l-8.668,1.014
		c-0.035-0.467-0.058-0.939-0.058-1.416H42.719l15.676,15.91l-9.092,9.25c-5.722,0.471-5.096-0.471-5.096-0.471
		s0.706-8.621-8.543-8.308s-12.679-1.313-12.679-1.313c6.251,21.458,19.87,11.581,19.87,11.581l4.292,0.118L30.804,114.13
		l-4.233-1.8c0.647-7.679-0.353-10.074-0.353-10.074C23.514,87.44,0,81.21,0,81.21c1.175,1.527,3.225,21.49,8.281,28.428
		c5.055,6.936,17.664,4.57,17.664,4.57l3.449,1.334c0,0-3.841,3.369-6.506,6.74c-2.665,3.37-1.646,6.035-1.019,7.211
		c0.627,1.176,5.879,2.665,3.841-0.078c-2.038-2.744-0.94-4.154-0.94-4.154l6.976-7.917l1.646,1.567
		c-1.411,28.688,30.726,24.299,30.726,24.299c-3.193-1.283-3.272-4.154-3.566-6.682c-0.294-2.529-2.234-6.486-2.234-6.486
		c-6.819-15.284-23.829-12.463-23.829-12.463l-1.097-1.646l15.901-15.795l0.559,1.764c-5.173,11.523,12.658,17.167,12.658,17.167
		c-1.567-3.526,1.372-5.8-1.411-12.737c-2.783-6.938-9.955-5.486-9.955-5.486l-0.352-0.98l10.19-9.562l18.027,18.105V90.772
		C73.579,90.772,68.682,88.495,65.212,84.849z M60.022,73.167l8.734-0.193c0.061,0.498,0.155,0.986,0.284,1.461l-8.225,2.943
		C60.398,76.032,60.131,74.622,60.022,73.167z M60.822,77.397l8.473-2.154c0.172,0.475,0.378,0.933,0.614,1.371l-7.336,4.73
		C61.848,80.11,61.255,78.788,60.822,77.397z M62.579,81.355l7.764-4.011c0.278,0.428,0.586,0.833,0.923,1.215l-6.055,6.287
		C64.206,83.79,63.322,82.62,62.579,81.355z"/>
	<path fill="#FED800" d="M131.801,102.256c0,0-1,2.396-0.353,10.074l-4.232,1.8l-16.343-15.637l4.292-0.118
		c0,0,13.619,9.877,19.87-11.581c0,0-3.43,1.627-12.679,1.313c-9.249-0.313-8.543,8.308-8.543,8.308s0.627,0.941-5.095,0.471
		l-9.093-9.25l15.677-15.91H98.057c0,0.27-0.009,0.537-0.02,0.804l-8.697-0.793c0-0.004,0-0.007,0-0.011H79.01v10.33
		c0.335,0,0.666-0.018,0.993-0.049l1.544,8.352l-0.706-8.468c0.532-0.097,1.051-0.231,1.552-0.405l3.491,7.797l-2.703-8.106
		c0.486-0.216,0.953-0.466,1.396-0.751l5.272,6.84l-4.578-7.324c0.414-0.316,0.803-0.663,1.164-1.036l6.785,5.499
		c-3.488,3.908-8.561,6.369-14.21,6.369v17.635l18.027-18.105l10.189,9.562l-0.352,0.98c0,0-7.172-1.451-9.954,5.486
		c-2.783,6.938,0.156,9.211-1.412,12.737c0,0,17.832-5.644,12.659-17.167l0.559-1.764l15.901,15.795l-1.097,1.646
		c0,0-17.009-2.821-23.829,12.463c0,0-1.939,3.957-2.233,6.486c-0.294,2.527-0.373,5.398-3.567,6.682
		c0,0,32.137,4.389,30.726-24.299l1.646-1.567l6.976,7.917c0,0,1.098,1.41-0.941,4.154c-2.038,2.743,3.214,1.254,3.841,0.078
		c0.627-1.176,1.646-3.841-1.019-7.211c-2.665-3.371-6.506-6.74-6.506-6.74l3.449-1.334c0,0,12.608,2.365,17.664-4.57
		c5.056-6.938,7.105-26.9,8.281-28.428C158.02,81.21,134.505,87.44,131.801,102.256z M93.221,84.403l-6.222-6.131
		c0.324-0.393,0.618-0.812,0.88-1.253l7.864,3.81C95.041,82.118,94.191,83.315,93.221,84.403z M95.749,80.82l-7.465-4.545
		c0.221-0.448,0.41-0.916,0.564-1.399l8.517,1.934C96.976,78.217,96.434,79.563,95.749,80.82z M97.37,76.792l-8.299-2.732
		c0.112-0.482,0.189-0.975,0.23-1.479l8.734-0.029C97.973,74.013,97.745,75.433,97.37,76.792z"/>
	<path fill="#00AB4B" d="M131.801,41.196c2.704,14.814,26.219,21.045,26.219,21.045c-1.176-1.528-3.225-21.491-8.281-28.428
		c-5.056-6.937-17.664-4.571-17.664-4.571l-3.449-1.333c0,0,3.841-3.37,6.506-6.741c2.665-3.371,1.646-6.035,1.019-7.21
		c-0.627-1.176-5.878-2.666-3.841,0.078c2.039,2.743,0.941,4.154,0.941,4.154l-6.976,7.916l-1.646-1.567
		C126.039-4.148,93.902,0.241,93.902,0.241c3.194,1.284,3.273,4.154,3.567,6.682c0.294,2.528,2.233,6.486,2.233,6.486
		c6.819,15.284,23.829,12.463,23.829,12.463l1.097,1.646l-15.901,15.793l-0.559-1.764c5.173-11.522-12.659-17.166-12.659-17.166
		c1.568,3.527-1.372,5.801,1.412,12.737c2.782,6.937,9.954,5.487,9.954,5.487l0.352,0.979l-10.189,9.562L79.01,35.042v17.636
		c7.805,0,14.51,4.697,17.452,11.417l-8.168,3.099c-0.227-0.463-0.487-0.906-0.777-1.327l6.741-5.542l-7.246,4.87
		c-0.332-0.406-0.693-0.786-1.082-1.137l5.203-6.849l-5.849,6.313c-0.422-0.324-0.871-0.618-1.342-0.874l3.411-7.771l-4.165,7.403
		c-0.493-0.218-1.005-0.401-1.535-0.541l1.471-8.284l-2.289,8.105c-0.531-0.095-1.077-0.149-1.632-0.159l-0.193-3.046v13.372h10.33
		l0,0c0-0.504-0.038-1-0.108-1.484l8.502-1.992c0.208,1.128,0.322,2.289,0.322,3.476h17.245L99.624,55.814l9.093-9.249
		c5.722-0.47,5.095,0.47,5.095,0.47s-0.705,8.623,8.543,8.309c9.249-0.313,12.679,1.313,12.679,1.313
		c-6.251-21.457-19.87-11.581-19.87-11.581l-4.292-0.117l16.343-15.638l4.232,1.8C130.801,38.799,131.801,41.196,131.801,41.196z
		 M89.077,69.412c-0.114-0.497-0.263-0.979-0.445-1.446l7.834-3.862c0.571,1.306,0.999,2.689,1.266,4.128L89.077,69.412z"/>
	<path fill="#0F84C7" d="M68.736,70.642c-0.037,0.356-0.057,0.717-0.057,1.083l0,0H79.01V58.354l-0.338-5.333l-0.306,8.396
		c-0.554,0.034-1.096,0.112-1.622,0.23l-2.508-8.049l1.698,8.263c-0.521,0.163-1.022,0.367-1.504,0.605l-4.374-7.311l3.636,7.713
		c-0.456,0.274-0.889,0.583-1.296,0.922l-6.038-6.183l5.414,6.75c-0.371,0.363-0.713,0.754-1.026,1.169l-7.368-4.679
		c3.442-4.936,9.158-8.169,15.632-8.169V35.042L60.982,53.149l-10.19-9.562l0.352-0.979c0,0,7.172,1.45,9.955-5.487
		c2.782-6.937-0.157-9.21,1.411-12.737c0,0-17.832,5.644-12.658,17.166l-0.559,1.764L33.391,27.519l1.097-1.646
		c0,0,17.009,2.821,23.829-12.463c0,0,1.94-3.958,2.234-6.486c0.293-2.527,0.373-5.398,3.566-6.682c0,0-32.137-4.389-30.726,24.299
		l-1.646,1.567l-6.976-7.917c0,0-1.098-1.411,0.94-4.154c2.038-2.744-3.213-1.254-3.841-0.079c-0.626,1.176-1.646,3.84,1.019,7.211
		c2.665,3.371,6.506,6.74,6.506,6.74l-3.449,1.333c0,0-12.608-2.366-17.664,4.571C3.225,40.75,1.175,60.713,0,62.241
		c0,0,23.514-6.231,26.219-21.045c0,0,1-2.396,0.353-10.075l4.233-1.8l16.343,15.638l-4.292,0.117c0,0-13.619-9.876-19.87,11.581
		c0,0,3.43-1.626,12.679-1.313s8.543-8.309,8.543-8.309s-0.626-0.94,5.096-0.47l9.092,9.249L42.719,71.726h17.244
		c0-0.971,0.074-1.925,0.214-2.857L68.736,70.642z M63.376,60.851l6.893,5.372c-0.271,0.428-0.51,0.877-0.716,1.345l-8.239-2.886
		C61.856,63.32,62.549,62.037,63.376,60.851z M61.308,64.695l7.937,3.66c-0.162,0.469-0.291,0.953-0.384,1.449l-8.681-0.957
		C60.398,67.402,60.785,66.014,61.308,64.695z"/>
	<g>
		<rect x="176.494" y="15.08" fill="none" width="321.209" height="125.569"/>
		<path fill="#2C4EA0" d="M179.711,16.941c1.778-0.296,4.106-0.55,7.069-0.55c3.64,0,6.307,0.847,8,2.371
			c1.566,1.354,2.498,3.428,2.498,5.968c0,2.582-0.762,4.614-2.201,6.095c-1.947,2.074-5.122,3.132-8.72,3.132
			c-1.101,0-2.116-0.042-2.963-0.254v11.429h-3.683V16.941z M183.394,30.698c0.804,0.211,1.82,0.296,3.048,0.296
			c4.444,0,7.153-2.159,7.153-6.095c0-3.767-2.667-5.587-6.73-5.587c-1.608,0-2.836,0.127-3.471,0.296V30.698z"/>
		<path fill="#2C4EA0" d="M211.364,16.603v11.936h13.799V16.603h3.725v28.529h-3.725V31.756h-13.799v13.375h-3.683V16.603H211.364z"
			/>
		<path fill="#2C4EA0" d="M244.413,16.603v28.529h-3.683V16.603H244.413z"/>
		<path fill="#2C4EA0" d="M256.298,16.603h3.683v25.439h12.19v3.09h-15.873V16.603z"/>
		<path fill="#2C4EA0" d="M286.342,36.158l-2.963,8.974h-3.81l9.692-28.529h4.444l9.735,28.529h-3.936l-3.048-8.974H286.342z
			 M295.697,33.28l-2.794-8.212c-0.635-1.862-1.059-3.556-1.481-5.206h-0.085c-0.423,1.693-0.889,3.428-1.439,5.164l-2.793,8.254
			H295.697z"/>
		<path fill="#2C4EA0" d="M313.083,16.984c2.243-0.339,4.91-0.593,7.831-0.593c5.291,0,9.058,1.228,11.556,3.556
			c2.539,2.328,4.021,5.629,4.021,10.243c0,4.656-1.438,8.466-4.105,11.09c-2.667,2.667-7.069,4.106-12.614,4.106
			c-2.624,0-4.825-0.127-6.688-0.338V16.984z M316.766,42.211c0.932,0.169,2.286,0.211,3.725,0.211
			c7.873,0,12.148-4.402,12.148-12.106c0.042-6.73-3.768-11.005-11.556-11.005c-1.904,0-3.344,0.169-4.317,0.381V42.211z"/>
		<path fill="#2C4EA0" d="M361.497,31.756h-11.09v10.286h12.359v3.09h-16.042V16.603h15.407v3.09h-11.725v9.016h11.09V31.756z"/>
		<path fill="#2C4EA0" d="M373,16.603h3.683v25.439h12.19v3.09H373V16.603z"/>
		<path fill="#2C4EA0" d="M398.43,16.941c1.778-0.296,4.105-0.55,7.069-0.55c3.64,0,6.307,0.847,7.999,2.371
			c1.566,1.354,2.498,3.428,2.498,5.968c0,2.582-0.762,4.614-2.201,6.095c-1.947,2.074-5.122,3.132-8.72,3.132
			c-1.101,0-2.116-0.042-2.963-0.254v11.429h-3.683V16.941z M402.113,30.698c0.805,0.211,1.82,0.296,3.048,0.296
			c4.444,0,7.153-2.159,7.153-6.095c0-3.767-2.667-5.587-6.73-5.587c-1.608,0-2.836,0.127-3.471,0.296V30.698z"/>
		<path fill="#2C4EA0" d="M430.083,16.603v11.936h13.799V16.603h3.725v28.529h-3.725V31.756h-13.799v13.375H426.4V16.603H430.083z"
			/>
		<path fill="#2C4EA0" d="M463.131,16.603v28.529h-3.683V16.603H463.131z"/>
		<path fill="#2C4EA0" d="M479.632,36.158l-2.963,8.974h-3.81l9.692-28.529h4.444l9.735,28.529h-3.937l-3.047-8.974H479.632z
			 M488.987,33.28l-2.794-8.212c-0.635-1.862-1.059-3.556-1.481-5.206h-0.085c-0.423,1.693-0.889,3.428-1.439,5.164l-2.793,8.254
			H488.987z"/>
		<path fill="#2C4EA0" d="M180.302,59.784h20.858V65.2h-14.263v9.973h13.297v5.416h-13.297v15.335h-6.595V59.784z"/>
		<path fill="#2C4EA0" d="M239.655,77.479c0,12.118-7.346,19.035-17.319,19.035c-10.188,0-16.622-7.774-16.622-18.392
			c0-11.099,6.971-18.928,17.158-18.928C233.435,59.194,239.655,67.184,239.655,77.479z M212.684,78.015
			c0,7.346,3.7,13.19,10.027,13.19c6.38,0,9.973-5.897,9.973-13.458c0-6.81-3.378-13.244-9.973-13.244
			C216.169,64.503,212.684,70.562,212.684,78.015z"/>
		<path fill="#2C4EA0" d="M277.398,77.479c0,12.118-7.346,19.035-17.318,19.035c-10.188,0-16.623-7.774-16.623-18.392
			c0-11.099,6.97-18.928,17.159-18.928C271.178,59.194,277.398,67.184,277.398,77.479z M250.427,78.015
			c0,7.346,3.7,13.19,10.027,13.19c6.381,0,9.973-5.897,9.973-13.458c0-6.81-3.378-13.244-9.973-13.244
			C253.913,64.503,250.427,70.562,250.427,78.015z"/>
		<path fill="#2C4EA0" d="M283.077,60.267c2.896-0.483,6.596-0.751,10.51-0.751c6.756,0,11.421,1.394,14.745,4.183
			c3.485,2.842,5.63,7.131,5.63,13.297c0,6.435-2.198,11.26-5.63,14.37c-3.593,3.271-9.329,4.933-16.354,4.933
			c-3.86,0-6.756-0.214-8.901-0.482V60.267z M289.672,90.884c0.911,0.161,2.306,0.161,3.646,0.161
			c8.579,0.053,13.674-4.665,13.674-13.834c0.053-7.99-4.558-12.547-12.815-12.547c-2.091,0-3.593,0.161-4.504,0.375V90.884z"/>
		<path fill="#2C4EA0" d="M330.594,60.267c2.359-0.429,5.631-0.751,10.081-0.751c4.825,0,8.364,1.019,10.67,2.949
			c2.145,1.77,3.539,4.611,3.539,7.989c0,3.432-1.072,6.274-3.11,8.204c-2.627,2.628-6.756,3.86-11.421,3.86
			c-1.233,0-2.359-0.053-3.217-0.214v13.619h-6.542V60.267z M337.136,77.104c0.804,0.215,1.877,0.268,3.217,0.268
			c4.934,0,7.936-2.412,7.936-6.648c0-4.021-2.788-6.166-7.346-6.166c-1.823,0-3.109,0.161-3.807,0.322V77.104z"/>
		<path fill="#2C4EA0" d="M392.628,77.479c0,12.118-7.346,19.035-17.318,19.035c-10.188,0-16.622-7.774-16.622-18.392
			c0-11.099,6.97-18.928,17.158-18.928C386.409,59.194,392.628,67.184,392.628,77.479z M365.658,78.015
			c0,7.346,3.7,13.19,10.027,13.19c6.381,0,9.973-5.897,9.973-13.458c0-6.81-3.378-13.244-9.973-13.244
			C369.143,64.503,365.658,70.562,365.658,78.015z"/>
		<path fill="#2C4EA0" d="M398.307,59.784h6.596v30.617h14.853v5.522h-21.448V59.784z"/>
		<path fill="#2C4EA0" d="M431.334,59.784v36.14h-6.596v-36.14H431.334z"/>
		<path fill="#2C4EA0" d="M464.791,94.852c-1.555,0.804-4.986,1.608-9.33,1.608c-11.475,0-18.444-7.185-18.444-18.177
			c0-11.904,8.257-19.089,19.303-19.089c4.343,0,7.453,0.912,8.793,1.609l-1.447,5.254c-1.716-0.75-4.075-1.394-7.078-1.394
			c-7.346,0-12.653,4.611-12.653,13.297c0,7.937,4.664,13.03,12.601,13.03c2.681,0,5.469-0.536,7.185-1.341L464.791,94.852z"/>
		<path fill="#2C4EA0" d="M478.888,95.924V80.856l-11.421-21.072h7.507l4.343,9.276c1.233,2.681,2.145,4.719,3.11,7.185h0.107
			c0.911-2.306,1.93-4.557,3.163-7.185l4.344-9.276h7.452l-12.011,20.912v15.228H478.888z"/>
		<path fill="#2C4EA0" d="M182.784,123.988l-2.38,7.207h-3.06l7.785-22.914h3.569l7.819,22.914h-3.162l-2.448-7.207H182.784z
			 M190.297,121.677l-2.244-6.596c-0.51-1.496-0.85-2.855-1.189-4.182h-0.068c-0.34,1.359-0.714,2.754-1.156,4.147l-2.244,6.63
			H190.297z"/>
		<path fill="#2C4EA0" d="M201.586,108.588c1.802-0.272,3.944-0.477,6.29-0.477c4.25,0,7.275,0.986,9.281,2.856
			c2.04,1.869,3.229,4.521,3.229,8.227c0,3.74-1.156,6.8-3.297,8.907c-2.142,2.142-5.678,3.298-10.131,3.298
			c-2.108,0-3.875-0.103-5.372-0.272V108.588z M204.544,128.85c0.748,0.136,1.836,0.17,2.992,0.17c6.323,0,9.757-3.536,9.757-9.723
			c0.034-5.406-3.025-8.84-9.281-8.84c-1.53,0-2.686,0.137-3.468,0.307V128.85z"/>
		<path fill="#2C4EA0" d="M230.961,131.195l-7.479-22.914h3.196l3.57,11.287c0.986,3.094,1.836,5.882,2.448,8.567h0.068
			c0.646-2.652,1.598-5.542,2.618-8.533l3.875-11.321h3.162l-8.193,22.914H230.961z"/>
		<path fill="#2C4EA0" d="M249.56,108.281v22.914h-2.958v-22.914H249.56z"/>
		<path fill="#2C4EA0" d="M256.02,127.592c1.326,0.815,3.264,1.496,5.304,1.496c3.025,0,4.793-1.599,4.793-3.91
			c0-2.142-1.224-3.365-4.317-4.556c-3.739-1.325-6.051-3.264-6.051-6.493c0-3.569,2.957-6.222,7.411-6.222
			c2.346,0,4.045,0.544,5.065,1.122l-0.816,2.414c-0.748-0.408-2.277-1.088-4.352-1.088c-3.128,0-4.317,1.87-4.317,3.434
			c0,2.142,1.394,3.195,4.556,4.42c3.875,1.495,5.848,3.365,5.848,6.731c0,3.535-2.618,6.595-8.023,6.595
			c-2.21,0-4.624-0.646-5.848-1.462L256.02,127.592z"/>
		<path fill="#2C4EA0" d="M294.472,119.501c0,7.887-4.794,12.068-10.642,12.068c-6.051,0-10.301-4.691-10.301-11.627
			c0-7.275,4.521-12.035,10.642-12.035C290.426,107.907,294.472,112.701,294.472,119.501z M276.692,119.874
			c0,4.896,2.651,9.281,7.309,9.281c4.692,0,7.344-4.317,7.344-9.519c0-4.556-2.38-9.315-7.31-9.315
			C279.139,110.321,276.692,114.843,276.692,119.874z"/>
		<path fill="#2C4EA0" d="M300.016,108.588c1.496-0.307,3.638-0.477,5.677-0.477c3.162,0,5.202,0.578,6.63,1.87
			c1.156,1.02,1.802,2.584,1.802,4.352c0,3.025-1.904,5.031-4.317,5.848v0.102c1.768,0.612,2.821,2.244,3.365,4.624
			c0.748,3.195,1.292,5.405,1.768,6.289h-3.06c-0.374-0.646-0.884-2.618-1.529-5.474c-0.681-3.161-1.904-4.352-4.59-4.453h-2.788
			v9.927h-2.957V108.588z M302.973,119.024H306c3.161,0,5.167-1.733,5.167-4.352c0-2.958-2.142-4.249-5.27-4.283
			c-1.428,0-2.447,0.136-2.924,0.271V119.024z"/>
		<path fill="#2C4EA0" d="M324.735,131.195v-9.723l-7.241-13.191h3.365l3.229,6.323c0.884,1.734,1.564,3.128,2.278,4.726h0.067
			c0.646-1.495,1.428-2.991,2.312-4.726l3.297-6.323h3.366l-7.684,13.157v9.757H324.735z"/>
		<path fill="#2C4EA0" d="M375.41,130.447c-1.088,0.544-3.264,1.088-6.051,1.088c-6.46,0-11.321-4.079-11.321-11.593
			c0-7.173,4.861-12.035,11.967-12.035c2.855,0,4.658,0.612,5.439,1.021l-0.714,2.413c-1.122-0.543-2.72-0.951-4.623-0.951
			c-5.372,0-8.941,3.434-8.941,9.451c0,5.609,3.229,9.213,8.805,9.213c1.802,0,3.638-0.374,4.828-0.952L375.41,130.447z"/>
		<path fill="#2C4EA0" d="M399.686,119.501c0,7.887-4.794,12.068-10.642,12.068c-6.051,0-10.301-4.691-10.301-11.627
			c0-7.275,4.521-12.035,10.642-12.035C395.64,107.907,399.686,112.701,399.686,119.501z M381.906,119.874
			c0,4.896,2.651,9.281,7.31,9.281c4.691,0,7.343-4.317,7.343-9.519c0-4.556-2.38-9.315-7.31-9.315
			C384.353,110.321,381.906,114.843,381.906,119.874z"/>
		<path fill="#2C4EA0" d="M408.186,108.281v13.565c0,5.133,2.278,7.309,5.338,7.309c3.399,0,5.575-2.243,5.575-7.309v-13.565h2.992
			v13.361c0,7.037-3.706,9.927-8.669,9.927c-4.692,0-8.228-2.686-8.228-9.791v-13.497H408.186z"/>
		<path fill="#2C4EA0" d="M428.927,131.195v-22.914h3.229l7.343,11.593c1.7,2.687,3.026,5.1,4.114,7.445l0.067-0.033
			c-0.271-3.061-0.34-5.848-0.34-9.418v-9.587h2.788v22.914h-2.992l-7.275-11.627c-1.598-2.55-3.127-5.167-4.283-7.649l-0.102,0.034
			c0.17,2.89,0.237,5.644,0.237,9.451v9.791H428.927z"/>
		<path fill="#2C4EA0" d="M469.01,130.447c-1.088,0.544-3.264,1.088-6.051,1.088c-6.46,0-11.321-4.079-11.321-11.593
			c0-7.173,4.861-12.035,11.967-12.035c2.856,0,4.658,0.612,5.439,1.021l-0.714,2.413c-1.122-0.543-2.72-0.951-4.623-0.951
			c-5.372,0-8.941,3.434-8.941,9.451c0,5.609,3.229,9.213,8.805,9.213c1.803,0,3.638-0.374,4.828-0.952L469.01,130.447z"/>
		<path fill="#2C4EA0" d="M477.376,108.281v22.914h-2.957v-22.914H477.376z"/>
		<path fill="#2C4EA0" d="M484.245,108.281h2.957v20.433h9.791v2.481h-12.748V108.281z"/>
	</g>
</g>
</svg>
